#!OML:ASF G:\JayActor3\Patient Classification 1\Patient 1\Session 5\male.ASF
:FULLY-SPECIFIED
:DEGREES
673
root 2.51461 16.6818 -4.73766 -454.911 87.7492 -482.104
lowerback 28.5715 -0.944159 0.849347
upperback 5.18572 -0.56257 -0.423349
thorax -9.98703 -0.112461 -0.797101
lowerneck 6.40865 -0.0712386 0.14831
upperneck -19.7093 0.894593 3.24594
head -7.08822 0.303408 0.934469
rclavicle -8.74653e-015 -1.78906e-015
rhumerus -26.5292 2.92174 -87.5904
rradius 34.0733
rwrist -2.99782
rhand -20.5141 -6.68772
rfingers 7.12502
rthumb 5.84352 -36.5871
lclavicle -8.74653e-015 -1.78906e-015
lhumerus -28.6477 -5.83372 84.7559
lradius 32.2417
lwrist 21.4107
lhand -20.7185 10.0853
lfingers 7.12502
lthumb 5.64611 39.9901
rfemur -58.7181 6.56108 23.0466
rtibia 41.2088
rfoot -10.8709 -16.7024
rtoes 12.5509
lfemur -53.7362 7.59839 -16.7721
ltibia 81.0793
lfoot -8.23005 -3.87466
ltoes -21.8258
674
root 2.42393 16.6873 -4.74807 -456.16 87.7733 -483.407
lowerback 28.5198 -0.962243 0.861183
upperback 5.17796 -0.585242 -0.435038
thorax -9.97062 -0.123951 -0.808977
lowerneck 6.39668 -0.0733692 0.146576
upperneck -19.6704 0.888997 3.24741
head -7.07337 0.300638 0.935574
rclavicle 3.97569e-015 2.26615e-014
rhumerus -26.5536 2.98943 -87.6612
rradius 34.1392
rwrist -3.08006
rhand -20.4817 -6.69215
rfingers 7.12502
rthumb 5.87476 -36.5907
lclavicle 3.97569e-015 2.26615e-014
lhumerus -28.623 -5.88323 84.7375
lradius 32.2818
lwrist 21.4342
lhand -20.6555 10.0874
lfingers 7.12502
lthumb 5.70697 39.9906
rfemur -58.9029 6.51604 22.8812
rtibia 40.7746
rfoot -10.363 -16.757
rtoes 12.736
lfemur -52.8209 7.56615 -16.9116
ltibia 79.6665
lfoot -8.16395 -4.05412
ltoes -21.5766
675
root 2.33257 16.6909 -4.75918 -457.611 87.7942 -484.907
lowerback 28.4602 -0.982125 0.875026
upperback 5.17132 -0.609558 -0.4455
thorax -9.94903 -0.13622 -0.820073
lowerneck 6.38111 -0.0764672 0.145909
upperneck -19.6347 0.882124 3.24705
head -7.0589 0.297427 0.936011
rclavicle -2.42517e-014 -1.23246e-014
rhumerus -26.5823 3.05818 -87.7267
rradius 34.2012
rwrist -3.14947
rhand -20.4347 -6.70499
rfingers 7.12502
rthumb 5.92016 -36.6023
lclavicle -2.42517e-014 -1.23246e-014
lhumerus -28.5926 -5.9214 84.7254
lradius 32.3028
lwrist 21.4712
lhand -20.5972 10.1169
lfingers 7.12502
lthumb 5.76329 40.0185
rfemur -59.0974 6.46011 22.7152
rtibia 40.3634
rfoot -9.85133 -16.8145
rtoes 12.869
lfemur -51.9276 7.52541 -17.0649
ltibia 78.1727
lfoot -8.05467 -4.22247
ltoes -21.2606
676
root 2.24026 16.6924 -4.77125 -459.032 87.8098 -486.374
lowerback 28.3877 -1.00003 0.894638
upperback 5.16529 -0.629798 -0.454255
thorax -9.92021 -0.146809 -0.834089
lowerneck 6.35996 -0.0815731 0.146777
upperneck -19.5996 0.872378 3.24464
head -7.04356 0.293004 0.935747
rclavicle 2.54444e-014 5.52621e-014
rhumerus -26.6146 3.12359 -87.7829
rradius 34.2567
rwrist -3.20443
rhand -20.3873 -6.71932
rfingers 7.12502
rthumb 5.96593 -36.6153
lclavicle 2.54444e-014 5.52621e-014
lhumerus -28.5601 -5.95071 84.7223
lradius 32.3148
lwrist 21.5167
lhand -20.5667 10.1233
lfingers 7.12502
lthumb 5.79269 40.0241
rfemur -59.3071 6.39353 22.5573
rtibia 39.9742
rfoot -9.32604 -16.8672
rtoes 12.9491
lfemur -51.0595 7.48809 -17.2298
ltibia 76.6057
lfoot -7.89643 -4.38047
ltoes -20.8033
677
root 2.14714 16.692 -4.78428 -460.298 87.8244 -487.68
lowerback 28.3068 -1.01409 0.915782
upperback 5.16041 -0.644868 -0.462838
thorax -9.88579 -0.155061 -0.850685
lowerneck 6.33912 -0.087907 0.144928
upperneck -19.5669 0.861308 3.24517
head -7.02907 0.287903 0.936998
rclavicle -2.14687e-014 -4.92986e-014
rhumerus -26.6548 3.18097 -87.8299
rradius 34.3056
rwrist -3.23995
rhand -20.3469 -6.71647
rfingers 7.12502
rthumb 6.00487 -36.6114
lclavicle -2.14687e-014 -4.92986e-014
lhumerus -28.5271 -5.97956 84.7308
lradius 32.3196
lwrist 21.5712
lhand -20.5759 10.1184
lfingers 7.12502
lthumb 5.78379 40.0195
rfemur -59.5252 6.32446 22.4033
rtibia 39.606
rfoot -8.79081 -16.921
rtoes 12.9891
lfemur -50.2054 7.45882 -17.4101
ltibia 74.9656
lfoot -7.68574 -4.5092
ltoes -20.273
678
root 2.05334 16.6899 -4.79834 -461.287 87.841 -488.691
lowerback 28.2296 -1.02296 0.934362
upperback 5.15902 -0.653744 -0.471093
thorax -9.84904 -0.160222 -0.867665
lowerneck 6.32497 -0.0928162 0.13672
upperneck -19.538 0.852114 3.24857
head -7.01703 0.283822 0.940112
rclavicle -1.31198e-014 -1.27222e-014
rhumerus -26.7007 3.22995 -87.8663
rradius 34.3457
rwrist -3.25486
rhand -20.3096 -6.70698
rfingers 7.12502
rthumb 6.04091 -36.6009
lclavicle -1.31198e-014 -1.27222e-014
lhumerus -28.4975 -6.00153 84.7502
lradius 32.323
lwrist 21.6171
lhand -20.6178 10.1032
lfingers 7.12502
lthumb 5.74341 40.0053
rfemur -59.7369 6.25552 22.2556
rtibia 39.256
rfoot -8.25495 -16.9729
rtoes 13.0197
lfemur -49.3465 7.44018 -17.6057
ltibia 73.2512
lfoot -7.40863 -4.60127
ltoes -19.6474
679
root 1.95883 16.686 -4.81356 -461.847 87.8641 -489.253
lowerback 28.1575 -1.02455 0.950312
upperback 5.16084 -0.654193 -0.482759
thorax -9.811 -0.161321 -0.889968
lowerneck 6.31575 -0.0976546 0.130025
upperneck -19.506 0.843156 3.25283
head -7.00488 0.279555 0.943229
rclavicle -1.15295e-014 -1.70955e-014
rhumerus -26.7536 3.25993 -87.8944
rradius 34.377
rwrist -3.24673
rhand -20.3002 -6.66619
rfingers 7.12502
rthumb 6.05 -36.5598
lclavicle -1.15295e-014 -1.70955e-014
lhumerus -28.4688 -6.02454 84.779
lradius 32.3183
lwrist 21.6466
lhand -20.6782 10.0315
lfingers 7.12502
lthumb 5.68506 39.9352
rfemur -59.9395 6.1912 22.1136
rtibia 38.9227
rfoot -7.71827 -17.023
rtoes 13.0426
lfemur -48.4753 7.43326 -17.8177
ltibia 71.4617
lfoot -7.04273 -4.63688
ltoes -18.9002
680
root 1.86367 16.6808 -4.82987 -462.047 87.8973 -489.424
lowerback 28.1039 -1.02087 0.954374
upperback 5.1663 -0.650835 -0.496294
thorax -9.7779 -0.160096 -0.908829
lowerneck 6.3135 -0.0988225 0.12364
upperneck -19.4683 0.838315 3.25412
head -6.99221 0.277328 0.944997
rclavicle 7.55382e-015 9.74045e-015
rhumerus -26.8109 3.27696 -87.9143
rradius 34.402
rwrist -3.22916
rhand -20.29 -6.62107
rfingers 7.12502
rthumb 6.05984 -36.5144
lclavicle 7.55382e-015 9.74045e-015
lhumerus -28.4483 -6.04236 84.8178
lradius 32.3123
lwrist 21.6589
lhand -20.7305 9.95819
lfingers 7.12502
lthumb 5.63457 39.8633
rfemur -60.1191 6.13059 21.9747
rtibia 38.604
rfoot -7.19663 -17.0718
rtoes 13.0888
lfemur -47.5782 7.4324 -18.046
ltibia 69.596
lfoot -6.59387 -4.60862
ltoes -18.0776
681
root 1.76779 16.6742 -4.84716 -461.881 87.9409 -489.202
lowerback 28.0627 -1.01204 0.942816
upperback 5.17525 -0.644865 -0.509967
thorax -9.74683 -0.157005 -0.919727
lowerneck 6.31543 -0.0954196 0.116585
upperneck -19.4202 0.837824 3.24959
head -6.97694 0.277571 0.944633
rclavicle 1.31198e-014 1.82882e-014
rhumerus -26.8663 3.28848 -87.9265
rradius 34.415
rwrist -3.20857
rhand -20.2965 -6.57839
rfingers 7.12502
rthumb 6.05353 -36.4719
lclavicle 1.31198e-014 1.82882e-014
lhumerus -28.4364 -6.05648 84.8683
lradius 32.3033
lwrist 21.6607
lhand -20.7643 9.89605
lfingers 7.12502
lthumb 5.6019 39.802
rfemur -60.2791 6.07462 21.8375
rtibia 38.2995
rfoot -6.68663 -17.1184
rtoes 13.1352
lfemur -46.6567 7.43023 -18.2868
ltibia 67.6644
lfoot -6.19258 -4.60182
ltoes -17.3914
682
root 1.67092 16.6662 -4.86537 -461.361 87.9914 -488.606
lowerback 28.027 -0.998845 0.918473
upperback 5.1867 -0.636569 -0.522753
thorax -9.71551 -0.15233 -0.923049
lowerneck 6.31474 -0.0884303 0.111224
upperneck -19.3567 0.839955 3.23707
head -6.95627 0.27956 0.941154
rclavicle -1.19271e-015 6.36111e-015
rhumerus -26.9166 3.2946 -87.9316
rradius 34.422
rwrist -3.19632
rhand -20.3011 -6.55705
rfingers 7.12502
rthumb 6.04915 -36.4507
lclavicle -1.19271e-015 6.36111e-015
lhumerus -28.4341 -6.07029 84.9309
lradius 32.2949
lwrist 21.663
lhand -20.7711 9.82764
lfingers 7.12502
lthumb 5.59531 39.7338
rfemur -60.4259 6.01869 21.7077
rtibia 38.0077
rfoot -6.18336 -17.1583
rtoes 13.176
lfemur -45.7206 7.42069 -18.5313
ltibia 65.6921
lfoot -5.96343 -4.63239
ltoes -17.0658
683
root 1.57298 16.6567 -4.88432 -460.538 88.0447 -487.691
lowerback 27.9881 -0.982559 0.880879
upperback 5.1996 -0.627619 -0.531201
thorax -9.68069 -0.146877 -0.914063
lowerneck 6.31868 -0.0784373 0.10136
upperneck -19.2864 0.844213 3.2201
head -6.93428 0.283095 0.936828
rclavicle -6.75868e-015 -9.74045e-015
rhumerus -26.9617 3.2994 -87.9271
rradius 34.4266
rwrist -3.19327
rhand -20.2711 -6.58108
rfingers 7.12502
rthumb 6.07813 -36.4739
lclavicle -6.75868e-015 -9.74045e-015
lhumerus -28.4496 -6.08701 85.0079
lradius 32.3017
lwrist 21.6818
lhand -20.7465 9.80342
lfingers 7.12502
lthumb 5.6191 39.7089
rfemur -60.5662 5.96368 21.5846
rtibia 37.7273
rfoot -5.6864 -17.1935
rtoes 13.2051
lfemur -44.783 7.40102 -18.7738
ltibia 63.7234
lfoot -6.04612 -4.72776
ltoes -17.3738
684
root 1.47397 16.6459 -4.90415 -459.382 88.1013 -486.43
lowerback 27.9451 -0.965111 0.834271
upperback 5.21328 -0.619635 -0.538182
thorax -9.64279 -0.141604 -0.89787
lowerneck 6.31995 -0.0656869 0.086334
upperneck -19.2047 0.850711 3.20253
head -6.90815 0.288081 0.932976
rclavicle 0 -8.15017e-015
rhumerus -26.9992 3.30392 -87.916
rradius 34.422
rwrist -3.198
rhand -20.2278 -6.61576
rfingers 7.12502
rthumb 6.11987 -36.5074
lclavicle 0 -8.15017e-015
lhumerus -28.4835 -6.10794 85.0955
lradius 32.3231
lwrist 21.7233
lhand -20.7096 9.80191
lfingers 7.12502
lthumb 5.65477 39.7065
rfemur -60.7008 5.9083 21.4671
rtibia 37.4551
rfoot -5.19463 -17.2206
rtoes 13.2414
lfemur -43.8511 7.37144 -19.0129
ltibia 61.8178
lfoot -6.53242 -4.87558
ltoes -18.2303
